<svg width="340" height="322" viewBox="0 0 340 322" fill="none" xmlns="http://www.w3.org/2000/svg">
<path
              d="M157.051 0.0204735C159.804 0.016037 162.554 0.011606 165.301 0.00718026C197.11 1.31593 225.585 10.5401 250.726 27.6796C275.386 44.4999 293.996 66.8366 306.554 94.6897C306.664 94.9395 306.485 95.2198 306.215 95.2203L260.355 95.6141C259.765 95.6151 259.205 95.346 258.824 94.8866C256.713 92.27 254.549 89.6102 252.331 86.9071C230.842 60.7083 203.082 46.0364 169.05 42.8912C161.996 42.2359 155.582 42.1996 149.81 42.7822C126.134 45.167 105.151 53.6742 86.8609 68.3037C81.6143 72.4921 76.7817 77.0699 72.363 82.037C58.0489 98.1068 48.6793 116.975 44.2542 138.642C44.1451 139.193 44.5559 139.702 45.1159 139.701L157.436 139.52C158.016 139.519 158.566 139.748 158.977 140.158L339.416 319.757C340.405 320.742 340.202 321.232 338.809 321.228L281.078 321.011C280.768 321.012 280.458 320.882 280.218 320.652L252.334 293.217C252.123 293.008 251.793 292.978 251.543 293.139C237.452 302.428 223.103 309.361 208.497 313.938C193.638 318.595 179.225 321.035 165.259 321.258C123.28 321.925 86.6985 308.834 55.5152 281.984C50.3881 277.566 45.6405 272.894 41.2726 267.967C30.6466 255.971 21.7884 242.622 14.698 227.92C14.397 227.291 14.8559 226.57 15.5459 226.569L60.8661 226.686C61.6961 226.684 62.4767 227.083 62.9578 227.762C78.0118 248.845 97.6523 263.627 121.879 272.107C128.19 274.317 134.642 275.96 141.237 277.036C169.151 281.578 195.543 276.645 220.414 262.239C220.633 262.108 220.683 261.808 220.503 261.629L141.265 182.396C140.884 182.017 140.354 181.798 139.804 181.798L2.04446 182.27C1.65447 182.271 1.334 181.982 1.29339 181.602C0.778964 176.789 0.351236 171.993 0.010201 167.214C0.00388475 163.294 -0.00242617 159.377 -0.00873171 155.464C1.27959 127.528 8.73852 102.036 22.3681 78.9876C37.467 53.4566 58.1515 33.5332 84.4218 19.2175C90.3899 15.9679 96.4321 13.1748 102.548 10.8383C119.884 4.21703 137.949 0.691254 156.741 0.260973C156.901 0.254048 157.005 0.173882 157.051 0.0204735Z"
              fill="#C0C0C0" />
            <path
              d="M288.243 236.939C288.243 236.939 223.229 172.591 190.617 139.997C189.976 139.351 190.108 139.027 191.015 139.026L312.265 138.771C312.825 138.77 313.295 139.189 313.356 139.749C317.342 176.216 310.516 209.927 292.879 240.882C292.73 241.152 292.35 241.193 292.139 240.963C290.757 239.485 288.243 236.939 288.243 236.939Z"
              fill="#C0C0C0" />
          </a>
        </g>
      </svg>
